gi<svg width="68" height="30" viewBox="0 0 68 30" fill="none" xmlns="http://www.w3.org/2000/svg">
<path d="M1.56151 13.5829C0.778031 14.3624 0.774089 15.6287 1.5527 16.4113L14.241 29.1649C15.0196 29.9476 16.2859 29.9501 17.0694 29.1707C17.8529 28.3912 17.8568 27.1249 17.0782 26.3423L5.79974 15.0057L17.1487 3.71494C17.9321 2.93548 17.9361 1.66915 17.1575 0.88653C16.3788 0.103905 15.1125 0.101344 14.329 0.88081L1.56151 13.5829ZM67.1122 13.1297L36.8773 13.0686L36.8648 17.0685L67.0997 17.1297L67.1122 13.1297ZM36.8773 13.0686L2.97754 13L2.96509 17L36.8648 17.0685L36.8773 13.0686Z" fill="#FFF4E6"/>
</svg>
